  0
SECTION
  2
HEADER
  9
$ACADVER
  1
AC1009
  9
$INSBASE
 10
0.0
 20
0.0
 30
0.0
  9
$EXTMIN
 10
0.0
 20
0.0
 30
0.0
  9
$EXTMAX
 10
0.0
 20
0.0
 30
0.0
  0
ENDSEC
  0
SECTION
  2
TABLES
  0
TABLE
  2
VPORT
 70
0
  0
ENDTAB
  0
TABLE
  2
LTYPE
 70
1
  0
LTYPE
  2
CONTINUOUS
 70
0
  3
Solid line
 72
65
 73
0
 40
0.0
  0
ENDTAB
  0
TABLE
  2
LAYER
 70
1
  0
LAYER
  2
0
 70
64
 62
7
  6
continuous
  0
ENDTAB
  0
TABLE
  2
STYLE
 70
1
  0
STYLE
  2
STANDARD
 70
0
 40
0
 41
1.0
 50
0.0
 71
0
 42
1
 3
ARIAL.TTF
 4

  0
ENDTAB
  0
TABLE
  2
VIEW
 70
0
  0
ENDTAB
  0
ENDSEC
  0
SECTION
  2
BLOCKS
  0
BLOCK
  8
0
  2
SKETCH009
 70
0
 10
0.0
 20
0.0
 30
0.0
  3
SKETCH009
  0
CIRCLE
  8
0
 62
7
 10
-25.0
 20
5e-16
 30
0.0
 40
2.25
  0
CIRCLE
  8
0
 62
7
 10
-24.5
 20
-10.0
 30
0.0
 40
2.25
  0
CIRCLE
  8
0
 62
7
 10
12.75
 20
-12.75
 30
0.0
 40
1.5
  0
CIRCLE
  8
0
 62
7
 10
-12.75
 20
12.75
 30
0.0
 40
1.5
  0
CIRCLE
  8
0
 62
7
 10
12.75
 20
12.75
 30
0.0
 40
1.5
  0
CIRCLE
  8
0
 62
7
 10
-24.5
 20
10.0
 30
0.0
 40
2.25
  0
CIRCLE
  8
0
 62
7
 10
24.5
 20
-10.0
 30
0.0
 40
2.25
  0
CIRCLE
  8
0
 62
7
 10
24.5
 20
10.0
 30
0.0
 40
2.25
  0
CIRCLE
  8
0
 62
7
 10
25.0
 20
5e-16
 30
0.0
 40
2.25
  0
ARC
  8
0
 62
7
 10
-24.999999999999996
 20
-3.1e-15
 30
0.0
 40
11.000000000000005
 50
140.3212926229648
 51
180.0
  0
ARC
  8
0
 62
7
 10
-25.0
 20
5e-16
 30
0.0
 40
11.0
 50
180.0
 51
-140.32129262296473
  0
LINE
  8
0
 62
7
 10
-33.46600573370052
 20
-7.023300286685022
 30
0.0
 11
-28.348184424409325
 21
-13.192409221220466
 31
0.0
  0
ARC
  8
0
 62
7
 10
-24.5
 20
-10.0
 30
0.0
 40
5.0
 50
-140.32129262296473
 51
-88.08978682829006
  0
ARC
  8
0
 62
7
 10
-24.0
 20
-24.99166435056495
 30
0.0
 40
10.0
 50
48.518223428292046
 51
91.91021317170996
  0
LINE
  8
0
 62
7
 10
-17.376181972723415
 20
-17.5
 30
0.0
 11
17.376181972723415
 21
-17.5
 31
0.0
  0
ARC
  8
0
 62
7
 10
23.999999999999993
 20
-24.99166435056494
 30
0.0
 40
9.99999999999999
 50
88.08978682829002
 51
131.48177657170797
  0
ARC
  8
0
 62
7
 10
24.500000000000004
 20
-10.000000000000002
 30
0.0
 40
4.999999999999999
 50
-91.91021317170996
 51
28.938773069078266
  0
ARC
  8
0
 62
7
 10
32.813804167752366
 20
-5.403190208387618
 30
0.0
 40
4.5
 50
145.33641647869825
 51
-151.06122693092175
  0
ARC
  8
0
 62
7
 10
25.0
 20
5e-16
 30
0.0
 40
5.0
 50
-34.663583521301746
 51
34.66358352130173
  0
ARC
  8
0
 62
7
 10
32.813804167752366
 20
5.40319020838762
 30
0.0
 40
4.500000000000004
 50
151.06122693092175
 51
-145.33641647869825
  0
ARC
  8
0
 62
7
 10
24.5
 20
10.0
 30
0.0
 40
4.999999999999999
 50
-28.93877306907824
 51
91.9102131717099
  0
ARC
  8
0
 62
7
 10
24.000000000000004
 20
24.99166435056496
 30
0.0
 40
10.000000000000009
 50
-131.4817765717079
 51
-88.08978682829013
  0
LINE
  8
0
 62
7
 10
-17.37618197272342
 20
17.5
 30
0.0
 11
17.376181972723412
 21
17.5
 31
0.0
  0
ARC
  8
0
 62
7
 10
-24.000000000000004
 20
24.99166435056495
 30
0.0
 40
10.0
 50
-91.91021317170996
 51
-48.518223428292046
  0
ARC
  8
0
 62
7
 10
-24.5
 20
10.0
 30
0.0
 40
5.0
 50
88.0897868282901
 51
140.32129262296473
  0
LINE
  8
0
 62
7
 10
-33.46600573370053
 20
7.023300286685021
 30
0.0
 11
-28.348184424409325
 21
13.192409221220466
 31
0.0
  0
CIRCLE
  8
0
 62
7
 10
-12.75
 20
-12.75
 30
0.0
 40
1.5
  0
ARC
  8
0
 62
7
 10
-29.5
 20
-3.0
 30
0.0
 40
1.0
 50
-90.0
 51
90.0
  0
LINE
  8
0
 62
7
 10
-29.5
 20
-2.0
 30
0.0
 11
-32.5
 21
-2.0
 31
0.0
  0
ARC
  8
0
 62
7
 10
-32.5
 20
-3.0
 30
0.0
 40
1.0
 50
90.0
 51
-90.0
  0
LINE
  8
0
 62
7
 10
-32.5
 20
-4.0
 30
0.0
 11
-29.5
 21
-4.0
 31
0.0
  0
ARC
  8
0
 62
7
 10
-32.5
 20
3.0
 30
0.0
 40
1.0
 50
90.0
 51
-90.0
  0
LINE
  8
0
 62
7
 10
-29.5
 20
2.0
 30
0.0
 11
-32.5
 21
2.0
 31
0.0
  0
ARC
  8
0
 62
7
 10
-29.5
 20
3.0
 30
0.0
 40
1.0
 50
-90.0
 51
90.0
  0
LINE
  8
0
 62
7
 10
-32.5
 20
4.0
 30
0.0
 11
-29.5
 21
4.0
 31
0.0
  0
LINE
  8
0
 62
7
 10
-17.5
 20
1.9499999864250985
 30
0.0
 11
-17.5
 21
-1.9499999864250985
 31
0.0
  0
ARC
  8
0
 62
7
 10
-17.5
 20
-2.9499999864250985
 30
0.0
 40
1.0
 50
90.0
 51
-90.0
  0
LINE
  8
0
 62
7
 10
-17.5
 20
-3.9499999864250985
 30
0.0
 11
-15.5
 21
-3.9499999864250985
 31
0.0
  0
ARC
  8
0
 62
7
 10
-15.5
 20
-2.9499999864250985
 30
0.0
 40
1.0
 50
-90.0
 51
90.0
  0
LINE
  8
0
 62
7
 10
-15.5
 20
-1.9499999864250985
 30
0.0
 11
-15.5
 21
1.9500000135749014
 31
0.0
  0
ARC
  8
0
 62
7
 10
-15.5
 20
2.9500000135749014
 30
0.0
 40
1.0
 50
-90.0
 51
90.00000077778455
  0
LINE
  8
0
 62
7
 10
-15.500000013574901
 20
3.9500000135749014
 30
0.0
 11
-17.5000000135749
 21
3.9499999864250985
 31
0.0
  0
ARC
  8
0
 62
7
 10
-17.5
 20
2.9499999864250985
 30
0.0
 40
1.0
 50
90.00000077778455
 51
-90.0
  0
LINE
  8
0
 62
7
 10
17.5
 20
1.9500000135749014
 30
0.0
 11
17.5
 21
-1.9499999864250985
 31
0.0
  0
ARC
  8
0
 62
7
 10
17.5
 20
-2.9499999864250985
 30
0.0
 40
1.0
 50
-90.0
 51
90.0
  0
LINE
  8
0
 62
7
 10
17.5
 20
-3.9499999864250985
 30
0.0
 11
15.500000000000002
 21
-3.9499999864250985
 31
0.0
  0
ARC
  8
0
 62
7
 10
15.500000000000002
 20
-2.9499999864250985
 30
0.0
 40
1.0
 50
90.0
 51
-90.0
  0
LINE
  8
0
 62
7
 10
15.500000000000002
 20
-1.9499999864250985
 30
0.0
 11
15.500000000000002
 21
1.9500000135749014
 31
0.0
  0
ARC
  8
0
 62
7
 10
15.500000000000002
 20
2.9500000135749014
 30
0.0
 40
1.0
 50
90.0
 51
-90.0
  0
LINE
  8
0
 62
7
 10
15.500000000000002
 20
3.9500000135749014
 30
0.0
 11
17.5
 21
3.9500000135749014
 31
0.0
  0
ARC
  8
0
 62
7
 10
17.5
 20
2.9500000135749014
 30
0.0
 40
1.0
 50
-90.0
 51
90.0
  0
LINE
  8
0
 62
7
 10
6.0
 20
4.5
 30
0.0
 11
6.0
 21
-4.5
 31
0.0
  0
ARC
  8
0
 62
7
 10
5.0
 20
-4.5
 30
0.0
 40
1.0
 50
-90.00000000000006
 51
-0.0
  0
LINE
  8
0
 62
7
 10
4.999999999999999
 20
-5.5
 30
0.0
 11
-4.999999999999999
 21
-5.5
 31
0.0
  0
ARC
  8
0
 62
7
 10
-5.000000000000021
 20
-4.500000000000022
 30
0.0
 40
0.999999999999978
 50
180.0
 51
-89.99999999999872
  0
LINE
  8
0
 62
7
 10
-5.999999999999999
 20
-4.499999999999974
 30
0.0
 11
-6.000000000000128
 21
4.5000000000002744
 31
0.0
  0
ARC
  8
0
 62
7
 10
-5.000000000000128
 20
4.500000000000242
 30
0.0
 40
1.0
 50
89.99999999999872
 51
180.0
  0
LINE
  8
0
 62
7
 10
-5.000000000000106
 20
5.500000000000242
 30
0.0
 11
5.000000000000001
 21
5.5
 31
0.0
  0
ARC
  8
0
 62
7
 10
5.0
 20
4.5
 30
0.0
 40
1.0
 50
-0.0
 51
90.0
  0
ENDBLK
  0
ENDSEC
  0
SECTION
  2
ENTITIES
  0
INSERT
  2
SKETCH009
  8
0
 62
7
 10
0.0
 20
0.0
 30
0.0
  0
ENDSEC
  0
EOF
