  0
SECTION
  2
HEADER
  9
$ACADVER
  1
AC1009
  9
$INSBASE
 10
0.0
 20
0.0
 30
0.0
  9
$EXTMIN
 10
0.0
 20
0.0
 30
0.0
  9
$EXTMAX
 10
0.0
 20
0.0
 30
0.0
  0
ENDSEC
  0
SECTION
  2
TABLES
  0
TABLE
  2
VPORT
 70
0
  0
ENDTAB
  0
TABLE
  2
LTYPE
 70
1
  0
LTYPE
  2
CONTINUOUS
 70
0
  3
Solid line
 72
65
 73
0
 40
0.0
  0
ENDTAB
  0
TABLE
  2
LAYER
 70
1
  0
LAYER
  2
0
 70
64
 62
7
  6
continuous
  0
ENDTAB
  0
TABLE
  2
STYLE
 70
1
  0
STYLE
  2
STANDARD
 70
0
 40
0
 41
1.0
 50
0.0
 71
0
 42
1
 3
ARIAL.TTF
 4

  0
ENDTAB
  0
TABLE
  2
VIEW
 70
0
  0
ENDTAB
  0
ENDSEC
  0
SECTION
  2
BLOCKS
  0
BLOCK
  8
0
  2
SKETCH
 70
0
 10
0.0
 20
0.0
 30
0.0
  3
SKETCH
  0
CIRCLE
  8
0
 62
7
 10
-67.03461786418164
 20
-65.80188228864095
 30
0.0
 40
2.5000000000000004
  0
ARC
  8
0
 62
7
 10
-66.34726371512542
 20
-73.77229910796572
 30
0.0
 40
4.500000000000001
 50
-154.9656017332574
 51
-7.716963286127162
  0
ARC
  8
0
 62
7
 10
-55.856489214536126
 20
-75.19387035783983
 30
0.0
 40
6.086652655144737
 50
118.55264948279049
 51
172.28303644022904
  0
LINE
  8
0
 62
7
 10
-57.00894641928092
 20
-68.89155453928709
 30
0.0
 11
-58.76570290541784
 21
-69.84748688439099
 31
0.0
  0
ARC
  8
0
 62
7
 10
-59.06420104485687
 20
-65.11452813958472
 30
0.0
 40
4.300000000000001
 50
-61.44734515144184
 51
24.146192004877157
  0
ARC
  8
0
 62
7
 10
-46.015384070137486
 20
-59.264880666422314
 30
0.0
 40
10.000000000000002
 50
142.12656031517105
 51
-155.85380799512285
  0
LINE
  8
0
 62
7
 10
-53.90907168142263
 20
-53.12568724257228
 30
0.0
 11
-28.520459188357407
 21
-20.481370755534797
 31
0.0
  0
ARC
  8
0
 62
7
 10
-16.679927278923834
 20
-29.690160258052792
 30
0.0
 40
15.000000000000004
 50
120.31491146151001
 51
142.1265633794723
  0
LINE
  8
0
 62
7
 10
-24.251211913290113
 20
-16.74119701826369
 30
0.0
 11
-18.29468868708568
 21
-13.258406318883766
 31
0.0
  0
ARC
  8
0
 62
7
 10
-21.82795431078919
 20
-7.215556491827414
 30
0.0
 40
7.000000000000002
 50
-59.68509364907036
 51
-28.359740995771702
  0
LINE
  8
0
 62
7
 10
-12.604836401276955
 20
-4.865727556088871
 30
0.0
 11
-15.668076432263128
 21
-10.540598524891871
 31
0.0
  0
LINE
  8
0
 62
7
 10
-14.604573572826006
 20
-4.898150460415977
 30
0.0
 11
-12.604836401276959
 21
-4.865727556088866
 31
0.0
  0
ARC
  8
0
 62
7
 10
-14.620785024989566
 20
-3.898281874641455
 30
0.0
 40
1.0000000000000002
 50
90.92888847882611
 51
-89.0711115211733
  0
LINE
  8
0
 62
7
 10
-14.636996477153112
 20
-2.8984132888669194
 30
0.0
 11
-14.726159464052675
 21
2.600863932892924
 31
0.0
  0
ARC
  8
0
 62
7
 10
-15.226093756939939
 20
2.5927582068111406
 30
0.0
 40
0.5000000000000001
 50
0.9288884788263073
 51
90.92888847882672
  0
LINE
  8
0
 62
7
 10
-15.234199483021719
 20
3.0926924996984155
 30
0.0
 11
-20.833463563359025
 21
3.001908367582493
 31
0.0
  0
ARC
  8
0
 62
7
 10
-22.333266442020808
 20
2.97759118933719
 30
0.0
 40
1.5000000000000004
 50
-179.07111152117173
 51
0.9288884788247379
  0
LINE
  8
0
 62
7
 10
-23.833069320682597
 20
2.9532740110917928
 30
0.0
 11
-26.23275366610496
 21
2.9143665301218054
 31
0.0
  0
ARC
  8
0
 62
7
 10
-26.22464820045972
 20
2.4144322330119934
 30
0.0
 40
0.5000000000000001
 50
90.9288586310761
 51
-179.07113436275318
  0
LINE
  8
0
 62
7
 10
-26.66822918083093
 20
-1.0693588493649457
 30
0.0
 11
-26.724582496578382
 21
2.4063267062344114
 31
0.0
  0
ARC
  8
0
 62
7
 10
-29.36787435424616
 20
-1.11313027447126
 30
0.0
 40
2.7000000000000006
 50
-38.98494404314225
 51
0.9288991810622759
  0
ARC
  8
0
 62
7
 10
-21.82795431078919
 20
-7.215556491827414
 30
0.0
 40
7.000000000000002
 50
141.01506097407272
 51
168.91601222333375
  0
ARC
  8
0
 62
7
 10
-43.41757554587317
 20
-2.98610559063313
 30
0.0
 40
15.000000000000004
 50
-37.87343657026106
 51
-11.0839918165525
  0
LINE
  8
0
 62
7
 10
-60.94137584356314
 20
-49.951135386380244
 30
0.0
 11
-31.57704362836058
 21
-12.194895082763217
 31
0.0
  0
ARC
  8
0
 62
7
 10
-84.62243822736535
 20
-31.533554536158135
 30
0.0
 40
30.000000000000007
 50
-60.83644316798709
 51
-37.87344108491244
  0
LINE
  8
0
 62
7
 10
-81.35532698757456
 20
-64.06547678017034
 30
0.0
 11
-70.00330816091859
 21
-57.73052069829822
 31
0.0
  0
ARC
  8
0
 62
7
 10
-80.72183174188069
 20
-65.20067886512408
 30
0.0
 40
1.3000000000000003
 50
119.16353712179297
 51
177.9288957721247
  0
LINE
  8
0
 62
7
 10
-82.09326220032754
 20
-67.15239071874464
 30
0.0
 11
-82.02098251308354
 21
-65.15369723378706
 31
0.0
  0
ARC
  8
0
 62
7
 10
-81.09391546057037
 20
-67.18853063762545
 30
0.0
 40
1.0000000000000002
 50
177.92888416399677
 51
-117.1768770352347
  0
LINE
  8
0
 62
7
 10
-74.0190254022623
 20
-71.94502191457852
 30
0.0
 11
-81.55065440698779
 21
-68.07813141034626
 31
0.0
  0
ARC
  8
0
 62
7
 10
-77.67293745695846
 20
-79.06182784818007
 30
0.0
 40
8.000000000000002
 50
25.03439826674268
 51
62.8231190733709
  0
CIRCLE
  8
0
 62
7
 10
-21.82795431078919
 20
-7.215556491827414
 30
0.0
 40
1.5000000000000004
  0
CIRCLE
  8
0
 62
7
 10
-66.51910225238947
 20
-71.77969490313453
 30
0.0
 40
1.0000000000000002
  0
CIRCLE
  8
0
 62
7
 10
-73.01243047867523
 20
-66.31739790043312
 30
0.0
 40
1.0000000000000002
  0
CIRCLE
  8
0
 62
7
 10
-61.05680524968807
 20
-65.28636667684879
 30
0.0
 40
1.0000000000000002
  0
CIRCLE
  8
0
 62
7
 10
-67.55013347597382
 20
-59.82406967414737
 30
0.0
 40
1.0000000000000002
  0
ENDBLK
  0
ENDSEC
  0
SECTION
  2
ENTITIES
  0
INSERT
  2
SKETCH
  8
0
 62
7
 10
0.0
 20
0.0
 30
0.0
  0
ENDSEC
  0
EOF
