999
FreeCAD v0.20 29177 +426 (Git)
  0
SECTION
  2
HEADER
  9
$ACADVER
  1
AC1014
  9
$ACADMAINTVER
 70
     9
  9
$DWGCODEPAGE
  3
ANSI_1252
  9
$TEXTSTYLE
  7
STANDARD
  9
$DIMSTYLE
  2
STANDARD
  9
$DIMTXSTY
  7
STANDARD
  9
$CMLSTYLE
  2
STANDARD
  9
$LUNITS
 70
2
  9
$INSUNITS
 70
4
  9
$PEXTMAX
 10
50
 20
50
 30
50
  9
$PEXTMIN
 10
0
 20
0
 30
0
  9
$HANDSEED
  5
FFFF
  0
ENDSEC
  0
SECTION
  2
CLASSES
  0
CLASS
  1
ACDBDICTIONARYWDFLT
  2
AcDbDictionaryWithDefault
  3
ObjectDBX Classes
 90
        0
280
     0
281
     0
  0
CLASS
  1
XRECORD
  2
AcDbXrecord
  3
ObjectDBX Classes
 90
        0
280
     0
281
     0
  0
CLASS
  1
LWPOLYLINE
  2
AcDbPolyline
  3
ObjectDBX Classes
 90
        0
280
     0
281
     1
  0
ENDSEC
  0
SECTION
  2
TABLES
  0
TABLE
  2
VPORT
  5
20
330
0
100
AcDbSymbolTable
 70
     1
  0
VPORT
  5
21
330
20
100
AcDbSymbolTableRecord
100
AcDbViewportTableRecord
  2
*ACTIVE
 70
     0
  0
ENDTAB
  0
TABLE
  2
LTYPE
  5
22
330
0
100
AcDbSymbolTable
 70
     1
  0
LTYPE
  5
23
330
21
100
AcDbSymbolTableRecord
100
AcDbLinetypeTableRecord
  2
BYBLOCK
 70
     0
  3

 72
    65
 73
     0
 40
0.0
  0
LTYPE
  5
24
330
21
100
AcDbSymbolTableRecord
100
AcDbLinetypeTableRecord
  2
BYLAYER
 70
     0
  3

 72
    65
 73
     0
 40
0.0
  0
LTYPE
  5
25
330
21
100
AcDbSymbolTableRecord
100
AcDbLinetypeTableRecord
  2
CONTINUOUS
 70
     0
  3
Solid line
 72
    65
 73
     0
 40
0.0
  0
ENDTAB
  0
TABLE
  2
LAYER
  5
A2B
330
0
100
AcDbSymbolTable
 70
3
  0
LAYER
  5
A2C
330
A2B
100
AcDbSymbolTableRecord
100
AcDbLayerTableRecord
  2
0
 70
   0
 62
   7
  6
CONTINUOUS
  0
LAYER
  5
A2D
330
A2B
100
AcDbSymbolTableRecord
100
AcDbLayerTableRecord
  2
none
 70
    0
 62
    7
  6
CONTINUOUS
  0
LAYER
  5
A2E
330
A2B
100
AcDbSymbolTableRecord
100
AcDbLayerTableRecord
  2
Sketch
 70
    0
 62
    7
  6
CONTINUOUS
  0
ENDTAB
  0
TABLE
  2
STYLE
  5
70
330
0
100
AcDbSymbolTable
 70
     2
  0
STYLE
  5
71
330
70
100
AcDbSymbolTableRecord
100
AcDbTextStyleTableRecord
  2
STANDARD
 70
     0
 40
0.0
 41
1.0
 50
0.0
 71
     0
 42
2.5
  3
arial.ttf
  4

  0
STYLE
  5
72
330
70
100
AcDbSymbolTableRecord
100
AcDbTextStyleTableRecord
  2
ANNOTATIVE
 70
     0
 40
0.0
 41
1.0
 50
0.0
 71
     0
 42
2.5
  3
arial.ttf
  4

  0
ENDTAB
  0
TABLE
  2
VIEW
  5
73
330
0
100
AcDbSymbolTable
 70
     0
  0
ENDTAB
  0
TABLE
  2
UCS
  5
74
330
0
100
AcDbSymbolTable
 70
     0
  0
ENDTAB
  0
TABLE
  2
APPID
  5
75
330
0
100
AcDbSymbolTable
 70
     2
  0
APPID
  5
76
330
75
100
AcDbSymbolTableRecord
100
AcDbRegAppTableRecord
  2
ACAD
 70
     0
  0
APPID
  5
77
330
75
100
AcDbSymbolTableRecord
100
AcDbRegAppTableRecord
  2
ACADANNOTATIVE
 70
     0
  0
ENDTAB
  0
TABLE
  2
DIMSTYLE
  5
78
330
0
100
AcDbSymbolTable
 70
     2
  0
DIMSTYLE
105
79
330
78
100
AcDbSymbolTableRecord
100
AcDbDimStyleTableRecord
  2
STANDARD
 70
     0
  3

  4

  5

  6

  7

 40
0.0
 41
2.5
 42
0.625
 43
3.75
 44
1.25
 45
0.0
 46
0.0
 47
0.0
 48
0.0
140
2.5
141
2.5
142
0.0
143
0.03937007874016
144
1.0
145
0.0
146
1.0
147
0.625
 71
     0
 72
     0
 73
     0
 74
     0
 75
     0
 76
     0
 77
     1
 78
     8
170
     0
171
     3
172
     1
173
     0
174
     0
175
     0
176
     0
177
     0
178
     0
270
     2
271
     2
272
     2
273
     2
274
     3
340
71
275
     0
280
     0
281
     0
282
     0
283
     0
284
     8
285
     0
286
     0
287
     3
288
     0
  0
ENDTAB
  0
TABLE
  2
BLOCK_RECORD
  5
A01
330
0
100
AcDbSymbolTable
  70
5
  0
BLOCK_RECORD
  5
A02
330
A01
100
AcDbSymbolTableRecord
100
AcDbBlockTableRecord
  2
*MODEL_SPACE
  0
BLOCK_RECORD
  5
A03
330
A01
100
AcDbSymbolTableRecord
100
AcDbBlockTableRecord
  2
*PAPER_SPACE
  0
ENDTAB
  0
ENDSEC
  0
SECTION
  2
BLOCKS
  0
BLOCK
  5
A04
330
A02
100
AcDbEntity
  8
0
100
AcDbBlockBegin
  2
*MODEL_SPACE
 70
   0
 10
0
 20
0
 30
0
  3
*MODEL_SPACE
  1
 
  0
ENDBLK
  5
A05
330
A02
100
AcDbEntity
  8
0
100
AcDbBlockEnd
  0
BLOCK
  5
A06
330
A03
100
AcDbEntity
 67
1
  8
0
100
AcDbBlockBegin
  2
*PAPER_SPACE
 70
   0
 10
0
 20
0
 30
0
  3
*PAPER_SPACE
  1
 
  0
ENDBLK
  5
A07
330
A03
100
AcDbEntity
 67
    1
  8
0
100
AcDbBlockEnd
  0
ENDSEC
  0
SECTION
  2
ENTITIES
  0
CIRCLE
  5
A08
330
A02
100
AcDbEntity
  8
Sketch
100
AcDbCircle
 10
-67.0346
 20
-65.8019
 40
3
  0
CIRCLE
  5
A09
330
A02
100
AcDbEntity
  8
Sketch
100
AcDbCircle
 10
-66.3473
 20
-73.7723
 40
1.5
  0
CIRCLE
  5
A0A
330
A02
100
AcDbEntity
  8
Sketch
100
AcDbCircle
 10
-59.0642
 20
-65.1145
 40
1.5
  0
CIRCLE
  5
A0B
330
A02
100
AcDbEntity
  8
Sketch
100
AcDbCircle
 10
-75.005
 20
-66.4892
 40
1.5
  0
ARC
  5
A0C
330
A02
100
AcDbEntity
  8
Sketch
100
AcDbCircle
 10
-66.3473
 20
-73.7723
 30
4.99999
 40
4.5
100
AcDbArc
 50
-154.966
 51
-7.71673
  0
ARC
  5
A0D
330
A02
100
AcDbEntity
  8
Sketch
100
AcDbCircle
 10
-55.8565
 20
-75.1939
 30
4.99999
 40
6.08665
100
AcDbArc
 50
118.553
 51
172.283
  0
LINE
  5
A0E
330
A02
100
AcDbEntity
  8
Sketch
100
AcDbLine
 10
-57.0089
 20
-68.8916
 30
4.99999
 11
-58.7657
 21
-69.8475
 31
4.99999
  0
ARC
  5
A0F
330
A02
100
AcDbEntity
  8
Sketch
100
AcDbCircle
 10
-59.0642
 20
-65.1145
 30
4.99999
 40
4.3
100
AcDbArc
 50
-61.4473
 51
24.1462
  0
ARC
  5
A10
330
A02
100
AcDbEntity
  8
Sketch
100
AcDbCircle
 10
-46.0154
 20
-59.2649
 30
4.99999
 40
10
100
AcDbArc
 50
142.127
 51
-155.854
  0
LINE
  5
A11
330
A02
100
AcDbEntity
  8
Sketch
100
AcDbLine
 10
-53.9091
 20
-53.1257
 30
4.99999
 11
-28.5205
 21
-20.4814
 31
4.99999
  0
ARC
  5
A12
330
A02
100
AcDbEntity
  8
Sketch
100
AcDbCircle
 10
-16.6799
 20
-29.6902
 30
4.99999
 40
15
100
AcDbArc
 50
120.315
 51
142.127
  0
LINE
  5
A13
330
A02
100
AcDbEntity
  8
Sketch
100
AcDbLine
 10
-24.2512
 20
-16.7412
 30
4.99999
 11
-18.2947
 21
-13.2584
 31
4.99999
  0
ARC
  5
A14
330
A02
100
AcDbEntity
  8
Sketch
100
AcDbCircle
 10
-21.828
 20
-7.21556
 30
4.99999
 40
7
100
AcDbArc
 50
-59.6852
 51
-19.7777
  0
LINE
  5
A15
330
A02
100
AcDbEntity
  8
Sketch
100
AcDbLine
 10
-12.6454
 20
-2.36606
 30
4.99999
 11
-15.2409
 21
-9.58416
 31
4.99999
  0
LINE
  5
A16
330
A02
100
AcDbEntity
  8
Sketch
100
AcDbLine
 10
-14.6451
 20
-2.39848
 30
4.99999
 11
-12.6454
 21
-2.36606
 31
4.99999
  0
ARC
  5
A17
330
A02
100
AcDbEntity
  8
Sketch
100
AcDbCircle
 10
-14.6613
 20
-1.39861
 30
4.99999
 40
1
100
AcDbArc
 50
90.9289
 51
-89.0711
  0
LINE
  5
A18
330
A02
100
AcDbEntity
  8
Sketch
100
AcDbLine
 10
-14.6775
 20
-0.398742
 30
4.99999
 11
-14.7667
 21
5.10054
 31
4.99999
  0
ARC
  5
A19
330
A02
100
AcDbEntity
  8
Sketch
100
AcDbCircle
 10
-15.2666
 20
5.09243
 30
4.99999
 40
0.5
100
AcDbArc
 50
0.928888
 51
90.9289
  0
LINE
  5
A1A
330
A02
100
AcDbEntity
  8
Sketch
100
AcDbLine
 10
-15.2747
 20
5.59236
 30
4.99999
 11
-20.874
 21
5.50158
 31
4.99999
  0
ARC
  5
A1B
330
A02
100
AcDbEntity
  8
Sketch
100
AcDbCircle
 10
-22.3738
 20
5.47726
 30
4.99999
 40
1.5
100
AcDbArc
 50
-179.071
 51
0.928888
  0
LINE
  5
A1C
330
A02
100
AcDbEntity
  8
Sketch
100
AcDbLine
 10
-23.8736
 20
5.45295
 30
4.99999
 11
-26.2733
 21
5.41404
 31
4.99999
  0
ARC
  5
A1D
330
A02
100
AcDbEntity
  8
Sketch
100
AcDbCircle
 10
-26.2652
 20
4.9141
 30
4.99999
 40
0.5
100
AcDbArc
 50
90.9288
 51
-179.071
  0
LINE
  5
A1E
330
A02
100
AcDbEntity
  8
Sketch
100
AcDbLine
 10
-26.6682
 20
-1.06936
 30
4.99999
 11
-26.7651
 21
4.906
 31
4.99999
  0
ARC
  5
A1F
330
A02
100
AcDbEntity
  8
Sketch
100
AcDbCircle
 10
-29.3679
 20
-1.11313
 30
4.99999
 40
2.7
100
AcDbArc
 50
-38.9849
 51
0.92889
  0
ARC
  5
A20
330
A02
100
AcDbEntity
  8
Sketch
100
AcDbCircle
 10
-21.828
 20
-7.21556
 30
4.99999
 40
7
100
AcDbArc
 50
141.015
 51
168.916
  0
ARC
  5
A21
330
A02
100
AcDbEntity
  8
Sketch
100
AcDbCircle
 10
-43.4176
 20
-2.98609
 30
4.99999
 40
15
100
AcDbArc
 50
-37.8733
 51
-11.0841
  0
LINE
  5
A22
330
A02
100
AcDbEntity
  8
Sketch
100
AcDbLine
 10
-60.9414
 20
-49.9511
 30
4.99999
 11
-31.577
 21
-12.1948
 31
4.99999
  0
ARC
  5
A23
330
A02
100
AcDbEntity
  8
Sketch
100
AcDbCircle
 10
-84.6224
 20
-31.5336
 30
4.99999
 40
30
100
AcDbArc
 50
-60.8364
 51
-37.8734
  0
LINE
  5
A24
330
A02
100
AcDbEntity
  8
Sketch
100
AcDbLine
 10
-81.3553
 20
-64.0655
 30
4.99999
 11
-70.0033
 21
-57.7305
 31
4.99999
  0
ARC
  5
A25
330
A02
100
AcDbEntity
  8
Sketch
100
AcDbCircle
 10
-80.7218
 20
-65.2007
 30
4.99999
 40
1.3
100
AcDbArc
 50
119.164
 51
177.929
  0
LINE
  5
A26
330
A02
100
AcDbEntity
  8
Sketch
100
AcDbLine
 10
-82.0933
 20
-67.1524
 30
4.99999
 11
-82.021
 21
-65.1537
 31
4.99999
  0
ARC
  5
A27
330
A02
100
AcDbEntity
  8
Sketch
100
AcDbCircle
 10
-81.0939
 20
-67.1885
 30
4.99999
 40
1
100
AcDbArc
 50
177.929
 51
-117.177
  0
LINE
  5
A28
330
A02
100
AcDbEntity
  8
Sketch
100
AcDbLine
 10
-74.019
 20
-71.945
 30
4.99999
 11
-81.5507
 21
-68.0781
 31
4.99999
  0
ARC
  5
A29
330
A02
100
AcDbEntity
  8
Sketch
100
AcDbCircle
 10
-77.6729
 20
-79.0618
 30
4.99999
 40
8
100
AcDbArc
 50
25.0344
 51
62.823
  0
CIRCLE
  5
A2A
330
A02
100
AcDbEntity
  8
Sketch
100
AcDbCircle
 10
-21.828
 20
-7.21556
 40
1.5
  0
ENDSEC
  0
SECTION
  2
OBJECTS
  0
DICTIONARY
  5
F000
330
0
100
AcDbDictionary
  3
ACAD_GROUP
350
F001
  0
DICTIONARY
  5
F001
330
F000
100
AcDbDictionary
  0
ENDSEC
  0
EOF