  0
SECTION
  2
HEADER
  9
$ACADVER
  1
AC1009
  9
$INSBASE
 10
0.0
 20
0.0
 30
0.0
  9
$EXTMIN
 10
0.0
 20
0.0
 30
0.0
  9
$EXTMAX
 10
0.0
 20
0.0
 30
0.0
  0
ENDSEC
  0
SECTION
  2
TABLES
  0
TABLE
  2
VPORT
 70
0
  0
ENDTAB
  0
TABLE
  2
LTYPE
 70
1
  0
LTYPE
  2
CONTINUOUS
 70
0
  3
Solid line
 72
65
 73
0
 40
0.0
  0
ENDTAB
  0
TABLE
  2
LAYER
 70
1
  0
LAYER
  2
0
 70
64
 62
7
  6
continuous
  0
ENDTAB
  0
TABLE
  2
STYLE
 70
1
  0
STYLE
  2
STANDARD
 70
0
 40
0
 41
1.0
 50
0.0
 71
0
 42
1
 3
ARIAL.TTF
 4

  0
ENDTAB
  0
TABLE
  2
VIEW
 70
0
  0
ENDTAB
  0
ENDSEC
  0
SECTION
  2
BLOCKS
  0
BLOCK
  8
0
  2
SKETCH
 70
0
 10
0.0
 20
0.0
 30
0.0
  3
SKETCH
  0
CIRCLE
  8
0
 62
0
 10
-22.8951
 20
-8.91864
 30
0.0
 40
1.5
  0
CIRCLE
  8
0
 62
0
 10
-67.0346
 20
-65.8019
 30
0.0
 40
3.0
  0
CIRCLE
  8
0
 62
0
 10
-66.3473
 20
-73.7723
 30
0.0
 40
1.5
  0
CIRCLE
  8
0
 62
0
 10
-59.0642
 20
-65.1145
 30
0.0
 40
1.5
  0
CIRCLE
  8
0
 62
0
 10
-75.005
 20
-66.4892
 30
0.0
 40
1.5
  0
ARC
  8
0
 62
0
 10
-66.3472491510924
 20
-73.7723
 30
0.0
 40
4.499973683961507
 50
-154.96584351291207
 51
-6.554479130672864
  0
ARC
  8
0
 62
0
 10
-55.9159
 20
-74.9708
 30
0.0
 40
6.0000000000000036
 50
113.17099999999996
 51
173.44600000000003
  0
LINE
  8
0
 62
0
 10
-57.37222973675227
 20
-69.06762997867328
 30
0.0
 11
-58.276759857699126
 21
-69.45479231941208
 31
0.0
  0
ARC
  8
0
 62
0
 10
-59.0642
 20
-65.11450764261272
 30
0.0
 40
4.299992973898376
 50
-66.82865992984621
 51
26.401711418516253
  0
ARC
  8
0
 62
0
 10
-46.2557
 20
-58.75583425003317
 30
0.0
 40
10.000020996846567
 50
142.18984496269505
 51
-153.59827881343708
  0
LINE
  8
0
 62
0
 10
-54.15618027880535
 20
-52.62535047617161
 30
0.0
 11
-30.722400000000004
 21
-22.425799999999995
 31
0.0
  0
ARC
  8
0
 62
0
 10
-18.8717
 20
-31.6215
 30
0.0
 40
14.999999632630729
 50
117.46300072933292
 51
142.1898745880271
  0
LINE
  8
0
 62
0
 10
-25.789335655885772
 20
-18.311867927273877
 30
0.0
 11
-19.666902548864837
 21
-15.12981873003864
 31
0.0
  0
ARC
  8
0
 62
0
 10
-22.8951
 20
-8.91864
 30
0.0
 40
6.999999999999999
 50
-62.5373
 51
-30.359699999999986
  0
LINE
  8
0
 62
0
 10
-13.5956
 20
-6.89213
 30
0.0
 11
-16.855014314639668
 21
-12.456628823258946
 31
0.0
  0
LINE
  8
0
 62
0
 10
-15.595293132779979
 20
-6.854735268127822
 30
0.0
 11
-13.5956
 21
-6.89213
 31
0.0
  0
ARC
  8
0
 62
0
 10
-15.5766
 20
-5.85491
 30
0.0
 40
1.0000000000000002
 50
88.9289
 51
-91.0711
  0
LINE
  8
0
 62
0
 10
-15.55790686722002
 20
-4.855084731872179
 30
0.0
 11
-15.45508736756738
 21
0.643950346358797
 31
0.0
  0
ARC
  8
0
 62
0
 10
-15.955
 20
0.653297
 30
0.0
 40
0.5000000000000007
 50
-1.0711100000001
 51
88.9289
  0
LINE
  8
0
 62
0
 10
-15.94565343361001
 20
1.1532096340639115
 30
0.0
 11
-21.54466210270214
 21
1.2578900390763874
 31
0.0
  0
ARC
  8
0
 62
0
 10
-23.0444
 20
1.28593
 30
0.0
 40
1.4999999999999996
 50
178.92899999999997
 51
-1.0711100000001
  0
LINE
  8
0
 62
0
 10
-24.544137951127954
 20
1.313967081633496
 30
0.0
 11
-26.9437
 21
1.358789922320436
 31
0.0
  0
ARC
  8
0
 62
0
 10
-26.953045711744966
 20
0.858923
 30
0.0
 40
0.49995428026783106
 50
88.9288999999999
 51
178.92899999999966
  0
LINE
  8
0
 62
0
 10
-27.517971776054885
 20
-2.6072614585059464
 30
0.0
 11
-27.452912650375985
 21
0.8682678393125904
 31
0.0
  0
ARC
  8
0
 62
0
 10
-30.2175
 20
-2.55679
 30
0.0
 40
2.6999999999999993
 50
-40.98490000000002
 51
-1.0710999999995974
  0
ARC
  8
0
 62
0
 10
-22.8951
 20
-8.91864
 30
0.0
 40
7.000034906260478
 50
139.0152726887446
 51
167.40706382714004
  0
ARC
  8
0
 62
0
 10
-44.3659
 20
-4.12221
 30
0.0
 40
14.999987670727341
 50
-37.81033654372529
 51
-12.592626182481442
  0
LINE
  8
0
 62
0
 10
-60.921055460784785
 20
-49.925
 30
0.0
 11
-32.51524333618516
 21
-13.317946335843537
 31
0.0
  0
ARC
  8
0
 62
0
 10
-84.6224
 20
-31.5336
 30
0.0
 40
29.999955448688425
 50
-60.836352517544306
 51
-37.81019034754765
  0
LINE
  8
0
 62
0
 10
-81.35530441668561
 20
-64.06550303293224
 30
0.0
 11
-70.0032501961473
 21
-57.73050412885504
 31
0.0
  0
ARC
  8
0
 62
0
 10
-80.7218
 20
-65.2007
 30
0.0
 40
1.3000000000000032
 50
119.1639999999997
 51
177.92900000000049
  0
LINE
  8
0
 62
0
 10
-82.09324681281991
 20
-67.15236210151822
 30
0.0
 11
-82.02095085666589
 21
-65.15372073197369
 31
0.0
  0
ARC
  8
0
 62
0
 10
-81.0939
 20
-67.1885
 30
0.0
 40
0.9999999999999942
 50
177.92899999999977
 51
-117.17700000000039
  0
LINE
  8
0
 62
0
 10
-74.019
 20
-71.94499528276106
 30
0.0
 11
-81.55064085562421
 21
-68.07809979249305
 31
0.0
  0
ARC
  8
0
 62
0
 10
-77.6729
 20
-79.0618
 30
0.0
 40
7.999993412079444
 50
25.034417148999985
 51
62.823191898561156
  0
ENDBLK
  0
ENDSEC
  0
SECTION
  2
ENTITIES
  0
INSERT
  2
SKETCH
  8
0
 62
0
 10
0.0
 20
0.0
 30
0.0
  0
ENDSEC
  0
EOF
